PathFileType	4	(X/Y/Z)	pose_F01_0-96.trc
DataRate	CameraRate	NumFrames	NumMarkers	Units	OrigDataRate	OrigDataStartFrame	OrigNumFrames
30	30	13	21	m	30	80	96
Frame#	Time	CHip			RHip			RKnee			RAnkle			RBigToe			RSmallToe			RHeel			LHip			LKnee			LAnkle			LBigToe			LSmallToe			LHeel			Neck			Nose			RShoulder			RElbow			RWrist			LShoulder			LElbow			LWrist			
		X1	Y1	Z1	X2	Y2	Z2	X3	Y3	Z3	X4	Y4	Z4	X5	Y5	Z5	X6	Y6	Z6	X7	Y7	Z7	X8	Y8	Z8	X9	Y9	Z9	X10	Y10	Z10	X11	Y11	Z11	X12	Y12	Z12	X13	Y13	Z13	X14	Y14	Z14	X15	Y15	Z15	X16	Y16	Z16	X17	Y17	Z17	X18	Y18	Z18	X19	Y19	Z19	X20	Y20	Z20	X21	Y21	Z21	
80	2.6666666666666665	-1.1193645811165966	1.7957949316532564	0.02962708164774361	-1.2132028783537878	1.7986853316916904	0.18277299343570752	-0.27966461137883647	1.7601373929059754	-0.6467117535204979													-1.027080460292315	1.7960667986280097	-0.12052992947876039	-0.22710080727737045	1.716218092619109	-0.7296879628378456													-0.25190323191376823	2.054458888185366	-0.8388336639314519	-0.2440756952150393	2.119085459643383	-0.8256588794189361	-0.2711369725425331	2.052806340484622	-0.7549156045335326	-0.26381676901968076	2.03588221871328	-0.6514502975130683	-0.23840193879518085	2.0910683358729525	-0.6271186621207924	-0.23255741800163704	2.059183716781697	-0.9199314268163278	-0.19923111141459152	2.0131196961532	-0.9447926377793706	-0.2042160673311954	2.0817775538835366	-0.8861970172487067
81	2.7	-1.113943071626212	1.795732120752183	0.019392710833703208	-1.203108973262984	1.796963107711131	0.16716036661708586	-0.27966461137883647	1.7601373929059754	-0.6467117535204979													-1.0246515205247557	1.7945133699036866	-0.1238224475469511	-0.22710080727737045	1.716218092619109	-0.7296879628378456													-0.2520224071550931	2.0504801900945187	-0.8383402822484598	-0.24194600807272684	2.1164109212320077	-0.8276206995846661	-0.271219845381696	2.0486146742464046	-0.75428287234075	-0.2629144540174663	2.026246271407113	-0.6552114026994572	-0.24226202009038234	2.073627770875207	-0.617694920545781	-0.23553916409506945	2.0567576957134026	-0.920105452029962	-0.19947409699609334	2.007109779219382	-0.9445080011767631	-0.20791701983556607	2.074510678970234	-0.9103143209244329
82	2.7333333333333334	-1.1023715738290962	1.789610438110759	0.00167078122773802	-1.2011424560147812	1.7910930362846371	0.1647437204833598	-0.27966461137883647	1.7601373929059754	-0.6467117535204979													-1.0113325287423183	1.787472698433954	-0.1438158705541115	-0.22710080727737045	1.716218092619109	-0.7296879628378456													-0.25220845605816505	2.0465112909751655	-0.838208692720939	-0.2397187556663354	2.1143416358027696	-0.8295711000011459	-0.2684799355160966	2.044321782887974	-0.7532550218283522	-0.26298693529793865	2.0169509455475736	-0.6539281312497868	-0.24088559251453778	2.0564860834136875	-0.5998533856663488	-0.23577604617376016	2.051913824225108	-0.9197177178471504	-0.2018886060952588	2.014181679496741	-0.9536766381592564	-0.20835816701369658	2.065538984090781	-0.9099110038887249
83	2.7666666666666666	-1.1026075114863632	1.7888728603189161	0.002217759007310882	-0.2622610496088806	1.8862157345824428	-0.7510757066948756	-0.27966461137883647	1.7601373929059754	-0.6467117535204979													-1.0139156200772468	1.7880968522361933	-0.14008995824473627	-0.22710080727737045	1.716218092619109	-0.7296879628378456													-0.25217037266324577	2.044813109467857	-0.8379830365145645	-0.24041060007059029	2.1134131542064405	-0.8320451291168907	-0.268552681723225	2.0416589809011043	-0.7530344911956277	-0.2664458100672029	2.004892106885415	-0.6531211782578692	-0.24440153825299302	2.033195121226182	-0.587890600859065	-0.23661749196491796	2.0491278323396176	-0.922340016304475	-0.20622273625626125	1.989245343650689	-0.9554188002374028	-0.20879931419182712	2.056567289211328	-0.909507686853017
84	2.8	-1.0983388194414412	1.7863142566430947	-0.007138325941705365	-0.26320629054674166	1.8825083209678888	-0.7499503152595298	-0.27966461137883647	1.7601373929059754	-0.6467117535204979													-1.0077623533221953	1.7850122953671974	-0.1503647242992822	-0.22710080727737045	1.716218092619109	-0.7296879628378456													-0.25381918971501893	2.0393416336568886	-0.8324980109819767	-0.2403851131379483	2.1109658067957664	-0.8318827472699419	-0.27245572895709746	2.0362200955054	-0.7454507966295869	-0.26721687112257037	1.985195418747983	-0.6555068180476482	-0.23565079030323777	1.9860381806322591	-0.5977329461029259	-0.2336603721385032	2.045008472273347	-0.9217835704098782	-0.20745392618946204	1.9757609287963382	-0.9575066235114597	-0.20374387178567827	2.0442546196235503	-0.9105349577541261
85	2.8333333333333335	-1.0965460250379084	1.7847287812205206	-0.007904147881958137	-0.2641515314846027	1.8788009073533347	-0.7488249238241841	-0.27966461137883647	1.7601373929059754	-0.6467117535204979													-1.00679160767027	1.7813858432417067	-0.15088250075259252	-0.22710080727737045	1.716218092619109	-0.7296879628378456													-0.25161219510388344	2.0382948958617053	-0.8346094918860449	-0.2374988080454146	2.1096196657598325	-0.8313346116649584	-0.27140631449581276	2.0369641150859468	-0.742461056632185	-0.2679879321779378	1.9654987306105507	-0.6578924578374273	-0.22690004235348255	1.938881240038336	-0.607575291346787	-0.23136962232454922	2.042069389905063	-0.9237759979939517	-0.21214786253328785	1.9660657085483384	-0.9631179317312172	-0.47380784946547116	1.9709689163307982	-0.6375497211743859
86	2.8666666666666667	-1.1003839671209523	1.7802618237516772	-0.0005008175163763216	-0.26509677242246377	1.8750934937387806	-0.7476995323888384	-0.27966461137883647	1.7601373929059754	-0.6467117535204979													-1.0092680548052415	1.7797188030247926	-0.14474354978262505	-0.22710080727737045	1.716218092619109	-0.7296879628378456													-0.2532376564805779	2.035108981437867	-0.8293246471964305	-0.23748411001359077	2.1096970758180373	-0.8312805836686424	-0.2729433090572856	2.0338210772848044	-0.7369157719608613	-0.27130100154172015	1.9556588949314042	-0.6746216098869939	-0.24618755011250587	1.897854653756851	-0.6128864657421531	-0.22842793957786592	2.0392919828535776	-0.9228961464566893	-0.2115670334565473	1.9666988213435277	-0.9600857548781264	-0.743871827145264	1.8976832130380459	-0.36456448459464563
87	2.9	-1.1099218207689046	1.7812873867722105	0.019862547957492545	-0.26413986251590704	1.877534830080282	-0.7446859960554196	-0.27966461137883647	1.7601373929059754	-0.6467117535204979													-1.0140536292843736	1.779185458034439	-0.13509046926405996	-0.22710080727737045	1.716218092619109	-0.7296879628378456													-0.2522436493133418	2.0381848448068243	-0.8265081325530721	-0.2358170717980682	2.109298059619967	-0.8256793931061546	-0.27200489319692667	2.0351461865931513	-0.7343964701151423	-0.27326664445295884	1.9630760777249252	-0.6840262593896147	-0.2600491950950067	1.898498468943446	-0.6256935461974076	-0.22903781458505057	2.0405230869604636	-0.9148455296963586	-0.21436971228896295	1.9670323035736252	-0.9516032846346631	-1.013935804825057	1.8243975097452938	-0.09157924801490551
88	2.933333333333333	-1.1270970415291879	1.786159402111519	0.04689457144961666	-0.2655587919712498	1.8840196504225653	-0.7399706218612184	-0.27966461137883647	1.7601373929059754	-0.6467117535204979													-1.0276640076690664	1.7876478369989162	-0.11547495437720623	-0.22710080727737045	1.716218092619109	-0.7296879628378456													-0.25370713625239705	2.0392449016991887	-0.8216444442985027	-0.23587444521712822	2.112139368623261	-0.8261916273980142	-0.2724980896502134	2.0356897229006976	-0.7265152385387329	-0.273560952404892	1.9549459515063494	-0.6833140135368312	-0.263665813755478	1.8857792309236705	-0.6365505678149183	-0.23146713369838914	2.042761471243315	-0.9131122968402472	-0.2171723911213786	1.9673657858037228	-0.9431208143911999	-0.976917783107184	1.816345199386514	-0.1620567884159468
89	2.966666666666667	-1.1341288808150736	1.790824783026823	0.059753335946517126	-0.269396284424553	1.8856808679403536	-0.732399217042691	-0.27966461137883647	1.7601373929059754	-0.6467117535204979													-1.0466418747271216	1.7920520979013517	-0.082607811599429	-0.22710080727737045	1.716218092619109	-0.7296879628378456													-0.25511343269829384	2.0419130542783184	-0.8166736555349251	-0.23709486215293374	2.1169959648193353	-0.8209674918944165	-0.27574890207891883	2.038015650140481	-0.7191155570259541	-0.27880496293665297	1.956789712296529	-0.681865332184114	-0.2733507360537862	1.8781413614963944	-0.6384246098042361	-0.2306876868147828	2.0449543110271944	-0.9104347575745915	-0.21997506995379426	1.9676992680338203	-0.9346383441477366	-0.976324287826429	1.809587251049548	-0.17046154980624248
90	3.0	-1.1377517772485841	1.7880536716283941	0.06815703327509966	-0.2682102905628611	1.8884967745101187	-0.7211443683902578	-0.27966461137883647	1.7601373929059754	-0.6467117535204979													-1.0509699366666698	1.7885821710774628	-0.07321720017239236	-0.22710080727737045	1.716218092619109	-0.7296879628378456													-0.256413350841762	2.04327187435546	-0.8114202591979558	-0.23844110941627272	2.1170049178682815	-0.8158540571095986	-0.2778169431464085	2.040770140426787	-0.7170018293717263	-0.27963291858732947	1.956103359303041	-0.6759262955431914	-0.2801045880490654	1.879750625688602	-0.6266120821323887	-0.23221491887779871	2.0449320007566922	-0.9053763345333786	-0.2209347621361572	1.9662869010746524	-0.926181424461989	-0.955391194390648	1.7914536784101782	-0.1961167552154997
91	3.033333333333333	-1.139776485272968	1.7900849909443097	0.07080426424304788	-0.2677535773169349	1.8855174327647912	-0.7177990482469347	-0.27966461137883647	1.7601373929059754	-0.6467117535204979													-1.0500729827998248	1.7897884389534409	-0.07470951133905376	-0.22710080727737045	1.716218092619109	-0.7296879628378456													-0.25462781360770154	2.0438480914399233	-0.8053980661863596	-0.23756081742242158	2.1194284934422285	-0.8131051355049412	-0.2747717649470653	2.0406598480781857	-0.7160571349158674	-0.2849662938085433	1.9570129408753143	-0.6663387289015186	-0.2825475983639853	1.8831176790516053	-0.6159565432863283	-0.2305694200215148	2.0463664531066015	-0.8992486155953842	-0.2222017037987643	1.9658432869669176	-0.9204550051421381	-0.9399075136385655	1.7912406952248716	-0.22438944547416234
92	3.066666666666667	-1.1473810800137771	1.7898176915577624	0.08674331560264713	-0.2686941013557279	1.885996968015253	-0.7125227137189304	-0.27966461137883647	1.7601373929059754	-0.6467117535204979													-1.0541644993210193	1.7896519542105698	-0.06265614703476248	-0.22710080727737045	1.716218092619109	-0.7296879628378456													-0.2560148202665905	2.043832135497998	-0.8002128631411469	-0.23586377482972365	2.120503683725043	-0.8070424291422428	-0.2758648899103938	2.0424676712213743	-0.7107195681015235	-0.28407599409822437	1.9570388916462669	-0.66304620572535	-0.2825960538549737	1.882031548748952	-0.6075026803633188	-0.23139413285745425	2.0477875969378867	-0.8915160758801566	-0.22409464878330687	1.9666343587676545	-0.915511694853439	-0.9387442226629326	1.7901063650906133	-0.22943356316175
